HIERARCHY
ROOT Hips
{
	OFFSET 0.00000 0.00000 0.00000
	CHANNELS 6 Xposition Yposition Zposition Yrotation Zrotation Xrotation 
	JOINT Lumbar
	{
		OFFSET 0 0 0
		CHANNELS 3 Zrotation Xrotation Yrotation
		JOINT Neck
		{
			OFFSET 0.00 0.2701 0.00
			CHANNELS 3 Zrotation Xrotation Yrotation
			End Site
			{
				OFFSET 0.00 0.1379 0.00
			}
		}
		JOINT RightShoulder
		{
			OFFSET 0.0119 0.2289 0.1181
			CHANNELS 3 Zrotation Xrotation Yrotation
			JOINT RightElbow
			{
				OFFSET 0.00 -0.1475 0.00
				CHANNELS 2 Zrotation Yrotation
				JOINT RightWrist
				{
					OFFSET 0.00 -0.1605 0.00
					CHANNELS 2 Zrotation Xrotation
					End Site
					{
						OFFSET 0.0040 -0.1068 0.0006
					}
				}
			}
		}
		JOINT LeftShoulder
		{
			OFFSET 0.0119 0.2289 -0.1181
			CHANNELS 3 Zrotation Xrotation Yrotation
			JOINT LeftElbow
			{
				OFFSET 0.00 -0.1475 0.00
				CHANNELS 2 Zrotation Yrotation
				JOINT LeftWrist
				{
					OFFSET 0.00 -0.1605 0.00
					CHANNELS 2 Zrotation Xrotation
					End Site
					{
						OFFSET 0.0040 -0.1068 -0.0006
					}
				}
			}
		}
	}
	JOINT RightHip
	{
		OFFSET 0.0316 -0.0424 0.0458
		CHANNELS 3 Zrotation Xrotation Yrotation
		JOINT RightKnee
		{
			OFFSET 0.00 -0.2438 0.00
			CHANNELS 1 Zrotation
			JOINT RightAnkle
			{
				OFFSET 0.00 -0.2449 0.00
				CHANNELS 3 Zrotation Xrotation Yrotation
				End Site
				{
					OFFSET 0.1237 -0.0542 0.0051
				}
			}
		}
	}
	JOINT LeftHip
	{
		OFFSET 0.0316 -0.0424 -0.0458
		CHANNELS 3 Zrotation Xrotation Yrotation
		JOINT LeftKnee
		{
			OFFSET 0.00 -0.2438 0.00
			CHANNELS 1 Zrotation
			JOINT LeftAnkle
			{
				OFFSET 0.00 -0.2449 0.00
				CHANNELS 3 Zrotation Xrotation Yrotation
				End Site
				{
					OFFSET 0.1237 -0.0542 -0.0051
				}
			}
		}
	}
}
MOTION
Frames: 19
Frame Time: 0.02
6e-05 -3e-05 4e-05 23.98822 -31.12949 -5.39186 48.70412 2.76044 -4.7511 4.72629 -0.85303 -0.43258 -18.61411 -11.19463 11.61109 33.77625 53.74214 -4.17812 -5.21084 -23.72425 13.07274 -13.55752 49.74235 -103.50556 12.84531 -1.44892 44.71422 0.06317 -6.17986 -19.42122 -6.21535 -3.80913 -2.60301 48.36294 4.41626 4.77397 -24.58823 -6.273 2.27172 1.8697
0.0001 -3e-05 -4e-05 23.98339 -31.1287 -5.3957 48.70635 2.75677 -4.74309 4.72304 -0.85585 -0.43281 -18.58881 -10.58454 9.69245 33.78419 61.35238 -2.28349 -3.99476 -23.73214 13.0679 -13.53876 49.73606 -103.50704 12.83098 -1.44872 44.70915 0.04939 -6.25202 -19.42003 -6.21065 -3.79552 -2.59561 48.36122 4.377 4.60179 -24.58838 -6.27772 2.30695 1.88077
0.00014 -2e-05 -0.00012 23.97854 -31.12791 -5.39953 48.7086 2.75311 -4.73506 4.71977 -0.85865 -0.43304 -18.56364 -9.97637 7.77993 33.79208 68.93915 -0.39472 -2.78243 -23.74007 13.06307 -13.51999 49.7298 -103.50848 12.81669 -1.44851 44.70407 0.03567 -6.32384 -19.41883 -6.20597 -3.78196 -2.58825 48.35946 4.33787 4.43022 -24.58852 -6.28243 2.34209 1.89181
0.00018 -2e-05 -0.00019 23.97371 -31.12712 -5.40337 48.71083 2.74945 -4.72707 4.71653 -0.86146 -0.43327 -18.53843 -9.36816 5.86723 33.79999 76.52596 1.49407 -1.57009 -23.74795 13.05824 -13.50127 49.72353 -103.50995 12.80241 -1.44831 44.69901 0.02194 -6.39576 -19.41764 -6.20129 -3.76839 -2.58088 48.35774 4.29874 4.25859 -24.58866 -6.28713 2.37722 1.90285
0.00022 -1e-05 -0.00027 23.96893 -31.12634 -5.40722 48.71303 2.74579 -4.7191 4.71332 -0.86429 -0.4335 -18.51308 -8.758 3.94833 33.80794 84.13619 3.38872 -0.354 -23.75576 13.05344 -13.4826 49.71721 -103.51146 12.78809 -1.4481 44.69396 0.00813 -6.46807 -19.41645 -6.1966 -3.75477 -2.57347 48.35606 4.25946 4.08632 -24.58881 -6.29186 2.41245 1.91392
0.00026 -0 -0.00035 23.96392 -31.12552 -5.41101 48.71539 2.74214 -4.71095 4.70993 -0.86703 -0.43373 -18.48827 -8.15408 2.04934 33.81572 91.6732 5.26503 0.85034 -23.76393 13.04853 -13.46362 49.71108 -103.51276 12.77389 -1.4479 44.68881 -0.00541 -6.53885 -19.41524 -6.19196 -3.74132 -2.56619 48.35416 4.22065 3.91621 -24.58895 -6.29652 2.44738 1.92489
0.0003 0 -0.00043 23.95937 -31.12478 -5.41491 48.71743 2.73845 -4.70317 4.7069 -0.86995 -0.43396 -18.46242 -7.5383 0.1125 33.82382 99.34893 7.17608 2.07695 -23.77138 13.04382 -13.44526 49.70459 -103.51447 12.75945 -1.44769 44.68388 -0.01946 -6.61261 -19.41408 -6.18721 -3.72755 -2.55868 48.35269 4.18095 3.742 -24.5891 -6.30131 2.48288 1.93605
0.00034 1e-05 -0.0005 23.95441 -31.12397 -5.41872 48.71975 2.73481 -4.69507 4.70355 -0.8727 -0.4342 -18.43751 -6.93339 -1.78967 33.83164 106.89729 9.05523 3.28311 -23.77946 13.03895 -13.42638 49.69842 -103.51582 12.74523 -1.44749 44.67875 -0.03305 -6.68368 -19.41287 -6.18256 -3.71408 -2.55137 48.35084 4.14205 3.57145 -24.58924 -6.30598 2.51786 1.94704
0.00038 2e-05 -0.00058 23.94888 -31.12305 -5.42241 48.72249 2.73121 -4.6865 4.69975 -0.87524 -0.43443 -18.41381 -6.34177 -3.64931 33.83908 114.29096 10.89563 4.46443 -23.78848 13.0338 -13.40661 49.6927 -103.51666 12.73129 -1.44729 44.67333 -0.04605 -6.75125 -19.41159 -6.17803 -3.70097 -2.54433 48.34847 4.10423 3.40579 -24.58936 -6.31052 2.5522 1.95781
0.00041 2e-05 -0.00066 23.94642 -31.1227 -5.42673 48.72302 2.72733 -4.68039 4.69837 -0.87898 -0.43465 -18.38336 -5.67369 -5.75325 33.84861 122.5779 12.95979 5.78918 -23.79257 13.03 -13.39123 49.68454 -103.52024 12.71578 -1.44704 44.66946 -0.06236 -6.83829 -19.41069 -6.17281 -3.68576 -2.53581 48.3489 4.06048 3.21323 -24.58958 -6.31585 2.5902 1.96982
0.00046 3e-05 -0.00074 23.93763 -31.12117 -5.42975 48.7281 2.72404 -4.66923 4.692 -0.88023 -0.4349 -18.36699 -5.16694 -7.3419 33.85376 128.97753 14.55123 6.81091 -23.80678 13.02352 -13.36706 49.68145 -103.51817 12.70358 -1.44692 44.6624 -0.07175 -6.88469 -19.40902 -6.16905 -3.67497 -2.53038 48.34357 4.02906 3.07665 -24.58959 -6.3195 2.62048 1.97921
0.00053 4e-05 -0.00082 23.90998 -31.1161 -5.42889 48.74678 2.72234 -4.64284 4.67087 -0.87433 -0.43521 -18.39088 -5.1079 -7.49961 33.84659 130.16081 14.83568 6.99493 -23.85141 13.00802 -13.3142 49.69299 -103.49976 12.70063 -1.44718 44.64568 -0.06139 -6.81503 -19.40506 -6.16936 -3.67646 -2.53369 48.32105 4.0332 3.10157 -24.58893 -6.31844 2.62946 1.98124
0.00061 6e-05 -0.0009 23.87625 -31.1099 -5.42676 48.76983 2.72123 -4.61161 4.64492 -0.866 -0.43555 -18.42861 -5.21045 -7.14152 33.83505 129.44892 14.64555 6.87471 -23.90574 12.99005 -13.25319 49.70949 -103.47612 12.7011 -1.44759 44.62591 -0.04422 -6.70539 -19.40038 -6.17112 -3.68234 -2.54005 48.29298 4.04942 3.18134 -24.58807 -6.31571 2.6307 1.98065
0.00069 8e-05 -0.00097 23.8463 -31.10441 -5.42541 48.79015 2.71987 -4.5835 4.62188 -0.85901 -0.43588 -18.45894 -5.23517 -7.03247 33.82577 129.63771 14.6812 6.89917 -23.95389 12.97437 -13.19907 49.72326 -103.45508 12.69973 -1.44785 44.60812 -0.03069 -6.61705 -19.39617 -6.17219 -3.6861 -2.54485 48.26833 4.05893 3.23072 -24.58734 -6.31382 2.63555 1.98135
0.00078 0.0001 -0.00106 23.81209 -31.09811 -5.42322 48.81361 2.71843 -4.55156 4.59581 -0.85107 -0.43623 -18.49398 -5.2767 -6.86684 33.8155 129.68519 14.68033 6.9005 -24.00947 12.95407 -13.13211 49.73906 -103.43196 12.69904 -1.44831 44.58784 -0.01487 -6.5155 -19.39137 -6.17343 -3.69041 -2.5504 48.23989 4.07351 3.30282 -24.58641 -6.31159 2.64001 1.98161
0.00084 0.00011 -0.00113 23.78526 -31.0932 -5.42246 48.83157 2.7173 -4.52638 4.5749 -0.84449 -0.43653 -18.5225 -5.32409 -6.68896 33.80604 129.54157 14.63414 6.87215 -24.05195 12.94243 -13.0892 49.75181 -103.41333 12.69841 -1.44859 44.57201 -0.00218 -6.43191 -19.38761 -6.17464 -3.6946 -2.55511 48.21801 4.08051 3.34116 -24.58586 -6.30966 2.64345 1.98218
0.00083 0.00011 -0.00118 23.78075 -31.0925 -5.42604 48.83312 2.71687 -4.52136 4.56963 -0.84249 -0.43667 -18.52877 -5.32399 -6.67843 33.80083 129.66795 14.66091 6.88962 -24.05521 12.95724 -13.11898 49.75473 -103.40347 12.69414 -1.4474 44.56939 8e-05 -6.40855 -19.38695 -6.17541 -3.69735 -2.55663 48.2159 4.06254 3.26776 -24.58643 -6.30899 2.64598 1.98424
0.0008 0.0001 -0.00123 23.7838 -31.0932 -5.43108 48.829 2.71676 -4.5232 4.56968 -0.84184 -0.43677 -18.52774 -5.32754 -6.6638 33.79573 129.61783 14.64617 6.87998 -24.04515 12.97972 -13.17086 49.75444 -103.40401 12.69213 -1.44679 44.57131 -0.00102 -6.40451 -19.38734 -6.17611 -3.69983 -2.55721 48.22051 4.03672 3.1594 -24.58739 -6.30867 2.64776 1.98669
0.00078 9e-05 -0.00127 23.7831 -31.09323 -5.43537 48.82761 2.7165 -4.52174 4.56716 -0.84055 -0.43689 -18.53114 -5.34658 -6.59663 33.7909 129.41468 14.59322 6.84522 -24.04151 12.99838 -13.21186 49.75574 -103.39698 12.68883 -1.44574 44.57107 -0.00049 -6.39108 -19.38721 -6.17686 -3.70245 -2.55825 48.22186 4.01522 3.07041 -24.58816 -6.30817 2.64988 1.98897
